<svg xmlns="http://www.w3.org/2000/svg" version="1.1" xmlns:xlink="http://www.w3.org/1999/xlink" width="200" height="200"><svg xmlns="http://www.w3.org/2000/svg" version="1.1" xmlns:xlink="http://www.w3.org/1999/xlink" viewBox="0 0 200 200"><rect width="200" height="200" fill="url('#gradient')"></rect><defs><linearGradient id="SvgjsLinearGradient1001" gradientTransform="rotate(45 0.5 0.5)"><stop offset="0%" stop-color="#d6ce5c"></stop><stop offset="100%" stop-color="#5b8d84"></stop></linearGradient></defs><g><g fill="#2e3f4e" transform="matrix(6.090179806362379,0,0,6.090179806362379,7.459405075333095,143.30055410284882)" stroke="#5b8d84" stroke-width="0.2"><path d="M8.87 0L6.36-5.02L4.50-5.02L4.50 0L1.07 0L1.07-14.22L6.67-14.22Q9.20-14.22 10.63-13.10Q12.05-11.97 12.05-9.92L12.05-9.92Q12.05-8.44 11.45-7.46Q10.85-6.48 9.57-5.88L9.57-5.88L12.54-0.15L12.54 0L8.87 0ZM4.50-11.57L4.50-7.67L6.67-7.67Q7.65-7.67 8.14-8.18Q8.63-8.69 8.63-9.61Q8.63-10.53 8.13-11.05Q7.64-11.57 6.67-11.57L6.67-11.57L4.50-11.57ZM13.99-10.57L17.08-10.57L17.19-9.33Q18.31-10.76 20.21-10.76L20.21-10.76Q22.21-10.76 22.91-9.17L22.91-9.17Q23.98-10.76 26.02-10.76L26.02-10.76Q29.23-10.76 29.32-6.88L29.32-6.88L29.32 0L26.02 0L26.02-6.67Q26.02-7.48 25.74-7.85Q25.47-8.22 24.75-8.22L24.75-8.22Q23.77-8.22 23.29-7.35L23.29-7.35L23.30-7.22L23.30 0L20 0L20-6.65Q20-7.48 19.74-7.85Q19.47-8.22 18.73-8.22L18.73-8.22Q17.78-8.22 17.29-7.35L17.29-7.35L17.29 0L13.99 0L13.99-10.57Z"></path></g></g></svg><style>@media (prefers-color-scheme: light) { :root { filter: none; } }
@media (prefers-color-scheme: dark) { :root { filter: none; } }
</style></svg>